<?xml version="1.0" encoding="UTF-8" standalone="no"?>
<svg
   xmlns:dc="http://purl.org/dc/elements/1.1/"
   xmlns:cc="http://creativecommons.org/ns#"
   xmlns:rdf="http://www.w3.org/1999/02/22-rdf-syntax-ns#"
   xmlns:svg="http://www.w3.org/2000/svg"
   xmlns="http://www.w3.org/2000/svg"
   id="svg6"
   version="1.1"
   mirror-in-rtl="true"
   viewBox="0 0 24 24"
   height="24px"
   width="24px">
  <metadata
     id="metadata12">
    <rdf:RDF>
      <cc:Work
         rdf:about="">
        <dc:format>image/svg+xml</dc:format>
        <dc:type
           rdf:resource="http://purl.org/dc/dcmitype/StillImage" />
        <dc:title></dc:title>
      </cc:Work>
    </rdf:RDF>
  </metadata>
  <defs
     id="defs10" />
  <path
     style="fill:#00384e;fill-opacity:1"
     fill="#494c4e"
     id="path2"
     d="M14.5 14h-13c-.828 0-1.5.67-1.5 1.5S.672 17 1.5 17h13c.828 0 1.5-.67 1.5-1.5s-.672-1.5-1.5-1.5zM14.5 7h-13C.672 7 0 7.672 0 8.5S.672 10 1.5 10h13c.828 0 1.5-.672 1.5-1.5S15.328 7 14.5 7z" />
  <path
     style="fill:#cb4f24;fill-opacity:1"
     id="path4"
     d="M23.71 16.29l-2-2c-.2-.19-.45-.29-.71-.29s-.51.1-.71.29l-2 2c-.28.29-.37.72-.21 1.09.15.38.52.62.92.62h.5v1.5c0 .83-.67 1.5-1.5 1.5H1.5c-.83 0-1.5.67-1.5 1.5S.67 24 1.5 24H18c2.48 0 4.5-2.02 4.5-4.5V18h.5c.4 0 .77-.24.92-.62.16-.37.07-.8-.21-1.09zM14.5 0h-13C.672 0 0 .672 0 1.5S.672 3 1.5 3h13c.828 0 1.5-.672 1.5-1.5S15.328 0 14.5 0z"
     fill="#494c4e" />
</svg>
